HIERARCHY
ROOT Hips
{
	OFFSET 0.000000 0.000000 0.000000
	CHANNELS 6 Xposition Yposition Zposition Zrotation Yrotation Xrotation 
	JOINT LHipJoint
	{
		OFFSET 0.000000 0.000000 0.000000
		CHANNELS 3 Zrotation Yrotation Xrotation
		JOINT LeftUpLeg
		{
			OFFSET 1.363060 -1.794630 0.839290
			CHANNELS 3 Zrotation Yrotation Xrotation
			JOINT LeftLeg
			{
				OFFSET 2.448110 -6.726130 0.000000
				CHANNELS 3 Zrotation Yrotation Xrotation
				JOINT LeftFoot
				{
					OFFSET 2.562200 -7.039590 0.000000
					CHANNELS 3 Zrotation Yrotation Xrotation
					JOINT LeftToeBase
					{
						OFFSET 0.157640 -0.433110 2.322550
						CHANNELS 3 Zrotation Yrotation Xrotation
						End Site
						{
							OFFSET 0.000000 0.000000 0.000000
						}
					}
				}
			}
		}
	}
	JOINT RHipJoint
	{
		OFFSET 0.000000 0.000000 0.000000
		CHANNELS 3 Zrotation Yrotation Xrotation
		JOINT RightUpLeg
		{
			OFFSET -1.305520 -1.794630 0.839290
			CHANNELS 3 Zrotation Yrotation Xrotation
			JOINT RightLeg
			{
				OFFSET -2.542530 -6.985550 0.000000
				CHANNELS 3 Zrotation Yrotation Xrotation
				JOINT RightFoot
				{
					OFFSET -2.568260 -7.056230 0.000000
					CHANNELS 3 Zrotation Yrotation Xrotation
					JOINT RightToeBase
					{
						OFFSET -0.164730 -0.452590 2.363150
						CHANNELS 3 Zrotation Yrotation Xrotation
						End Site
						{
							OFFSET 0.000000 0.000000 0.000000
						}
					}
				}
			}
		}
	}
	JOINT LowerBack
	{
		OFFSET 0.000000 0.000000 0.000000
		CHANNELS 3 Zrotation Yrotation Xrotation
		JOINT Spine
		{
			OFFSET 0.028270 2.035590 -0.193380
			CHANNELS 3 Zrotation Yrotation Xrotation
			JOINT Spine1
			{
				OFFSET 0.056720 2.048850 -0.042750
				CHANNELS 3 Zrotation Yrotation Xrotation
				JOINT Neck
				{
					OFFSET 0.000000 0.000000 0.000000
					CHANNELS 3 Zrotation Yrotation Xrotation
					JOINT Neck1
					{
						OFFSET -0.054170 1.746240 0.172020
						CHANNELS 3 Zrotation Yrotation Xrotation
						JOINT Head
						{
							OFFSET 0.104070 1.761360 -0.123970
							CHANNELS 3 Zrotation Yrotation Xrotation
							End Site
							{
								OFFSET 0.000000 0.000000 0.000000
							}
						}
					}
				}
				JOINT LeftShoulder
				{
					OFFSET 0.000000 0.000000 0.000000
					CHANNELS 3 Zrotation Yrotation Xrotation
					JOINT LeftArm
					{
						OFFSET 3.362410 1.200890 -0.311210
						CHANNELS 3 Zrotation Yrotation Xrotation
						JOINT LeftForeArm
						{
							OFFSET 4.983000 -0.000000 -0.000000
							CHANNELS 3 Zrotation Yrotation Xrotation
							JOINT LeftHand
							{
								OFFSET 3.483560 -0.000000 -0.000000
								CHANNELS 3 Zrotation Yrotation Xrotation
								JOINT LeftFingerBase
								{
									OFFSET 0.000000 0.000000 0.000000
									CHANNELS 3 Zrotation Yrotation Xrotation
									JOINT LeftHandIndex1
									{
										OFFSET 0.715260 -0.000000 -0.000000
										CHANNELS 3 Zrotation Yrotation Xrotation
										End Site
										{
											OFFSET 0.000000 0.000000 0.000000
										}
									}
								}
								JOINT LThumb
								{
									OFFSET 0.000000 0.000000 0.000000
									CHANNELS 3 Zrotation Yrotation Xrotation
									End Site
									{
										OFFSET 0.000000 0.000000 0.000000
									}
								}
							}
						}
					}
				}
				JOINT RightShoulder
				{
					OFFSET 0.000000 0.000000 0.000000
					CHANNELS 3 Zrotation Yrotation Xrotation
					JOINT RightArm
					{
						OFFSET -3.136600 1.374050 -0.404650
						CHANNELS 3 Zrotation Yrotation Xrotation
						JOINT RightForeArm
						{
							OFFSET -5.241900 -0.000000 -0.000000
							CHANNELS 3 Zrotation Yrotation Xrotation
							JOINT RightHand
							{
								OFFSET -3.444170 -0.000000 -0.000000
								CHANNELS 3 Zrotation Yrotation Xrotation
								JOINT RightFingerBase
								{
									OFFSET 0.000000 0.000000 0.000000
									CHANNELS 3 Zrotation Yrotation Xrotation
									JOINT RightHandIndex1
									{
										OFFSET -0.622530 -0.000000 -0.000000
										CHANNELS 3 Zrotation Yrotation Xrotation
										End Site
										{
											OFFSET 0.000000 0.000000 0.000000
										}
									}
								}
								JOINT RThumb
								{
									OFFSET 0.000000 0.000000 0.000000
									CHANNELS 3 Zrotation Yrotation Xrotation
									End Site
									{
										OFFSET 0.000000 0.000000 0.000000
									}
								}
							}
						}
					}
				}
			}
		}
	}
}
MOTION
Frames: 5
Frame Time: 0.008333
6.643801 17.556143 -8.683222 -1.756335 -17.149492 10.451856 -1.742632 -1.415206 -0.670495 -12.068193 -3.391239 -17.863090 1.249477 10.110615 27.351899 -2.615245 14.203270 -6.554423 0.140200 -2.413600 -6.650200 1.646773 1.689479 -1.102438 14.478219 7.471662 -19.194981 -2.596470 -11.780721 32.930132 2.199917 -10.422525 -9.302163 -0.059500 -1.574000 4.329700 -1.895616 -0.831582 5.102749 2.239104 -0.912039 -3.246655 5.102943 -0.572527 -2.238073 -17.593193 -15.531405 -4.102201 11.395189 -19.673974 3.785271 6.020600 -9.790400 7.256100 -0.544650 -1.740153 0.959585 -84.450819 -2.790776 61.768329 54.372460 -56.913331 -25.533509 -1.693155 1.601651 -37.861026 21.509610 36.100478 12.513900 -7.125000 0.000000 0.000000 -13.718000 64.991900 -6.691200 0.411268 2.203780 0.328857 77.418425 4.383801 54.009284 -29.999962 44.061733 -10.313435 -1.147964 -0.745264 -0.084643 -30.200995 9.243618 -5.634500 7.125000 0.000000 0.000000 -1.430800 -18.319600 -0.908800 
6.642596 17.554938 -8.676898 -1.684490 -16.778726 10.321994 -1.744215 -1.411543 -0.671407 -12.097354 -3.567143 -17.703864 1.241375 10.100217 27.319500 -2.577498 14.043129 -6.479868 0.143900 -2.444300 -6.735200 1.647400 1.685042 -1.093405 14.484869 7.228495 -19.082932 -2.597826 -11.779219 32.925884 2.259046 -10.622642 -9.425630 -0.052800 -1.482400 4.077300 -1.851716 -0.944941 5.181652 2.237574 -1.059759 -3.232239 5.059490 -0.649122 -2.226541 -17.585623 -15.560489 -4.120609 11.375027 -19.711557 3.789379 6.004000 -9.808000 7.265000 -0.544282 -1.741101 0.961152 -84.442828 -2.766611 61.768969 54.323888 -56.897745 -25.502195 -1.693761 1.601568 -37.818624 21.469862 36.156340 12.508900 -7.125000 0.000000 0.000000 -13.811200 65.035800 -6.751600 0.403555 2.203166 0.330688 77.480033 4.365166 53.868778 -29.899544 43.992267 -10.267649 -1.151879 -0.742504 0.079234 -30.287070 9.241272 -5.653700 7.125000 0.000000 0.000000 -1.490100 -18.310900 -0.946800 
6.640790 17.555139 -8.673887 -1.686046 -16.770557 10.339401 -1.744557 -1.411261 -0.672195 -12.091880 -3.593459 -17.693546 1.239180 10.097220 27.309282 -2.585141 14.077043 -6.506306 0.142200 -2.430600 -6.697400 1.647443 1.684963 -1.092994 14.481855 7.232247 -19.069512 -2.596150 -11.778200 32.924757 2.233889 -10.546592 -9.464921 -0.060000 -1.580500 4.347600 -1.830710 -0.946288 5.149238 2.235670 -1.060333 -3.230716 5.029256 -0.648522 -2.234001 -17.581341 -15.523118 -3.875891 11.422914 -19.679437 3.571803 6.050500 -9.799000 7.116500 -0.537673 -1.735559 0.965673 -84.435263 -2.713197 61.729084 54.313022 -56.899464 -25.501556 -1.696066 1.601349 -37.823705 21.465723 36.237443 12.532600 -7.125000 0.000000 0.000000 -13.882900 65.111900 -6.811700 0.398081 2.200304 0.334700 77.570303 4.400192 53.771538 -29.722304 43.862797 -10.178250 -1.157607 -0.736680 0.209529 -30.364068 9.305034 -5.704500 7.125000 0.000000 0.000000 -1.536300 -18.232300 -0.978900 
6.638080 17.555139 -8.671378 -1.698232 -16.800386 10.360317 -1.746021 -1.411071 -0.671046 -12.074374 -3.583306 -17.695195 1.237616 10.093500 27.297746 -2.590139 14.097127 -6.501519 0.141300 -2.422900 -6.675900 1.646719 1.685041 -1.093578 14.500739 7.246507 -19.080505 -2.595063 -11.776884 32.919384 2.236342 -10.553239 -9.448933 -0.057800 -1.551700 4.268300 -1.848854 -0.941801 5.110732 2.245626 -1.055561 -3.235455 5.066313 -0.645589 -2.218230 -17.607965 -15.535399 -3.948477 11.380770 -19.687417 3.645272 6.028500 -9.803400 7.161500 -0.535230 -1.737559 0.964808 -84.462314 -2.679640 61.648548 54.310117 -56.901453 -25.505162 -1.698135 1.601832 -37.855027 21.476280 36.272856 12.549600 -7.125000 0.000000 0.000000 -13.899000 65.146800 -6.830900 0.395418 2.198953 0.331652 77.603125 4.391342 53.726971 -29.644221 43.803960 -10.137953 -1.157820 -0.736781 0.215312 -30.376299 9.285744 -5.696800 7.125000 0.000000 0.000000 -1.546400 -18.252700 -0.984600 
6.635671 17.555139 -8.668367 -1.697190 -16.769656 10.361332 -1.746713 -1.410540 -0.670884 -12.065798 -3.604447 -17.678288 1.236600 10.091839 27.292554 -2.590057 14.096287 -6.500923 0.141400 -2.423500 -6.677700 1.646360 1.684602 -1.092723 14.512874 7.225911 -19.071979 -2.594913 -11.776870 32.919061 2.239331 -10.564745 -9.466876 -0.057200 -1.543700 4.246300 -1.848070 -0.950876 5.089641 2.249543 -1.067649 -3.236267 5.071296 -0.651414 -2.211490 -17.618793 -15.536257 -3.919879 11.365980 -19.689644 3.629592 6.025800 -9.806800 7.147200 -0.532113 -1.737289 0.965566 -84.473282 -2.639719 61.596865 54.301550 -56.901378 -25.502770 -1.698762 1.602085 -37.863045 21.475947 36.288598 12.554200 -7.125000 0.000000 0.000000 -13.912800 65.161500 -6.842600 0.391530 2.197294 0.331253 77.654768 4.394951 53.662686 -29.549964 43.734398 -10.090049 -1.158901 -0.736106 0.256905 -30.398640 9.271961 -5.694600 7.125000 0.000000 0.000000 -1.562800 -18.265500 -0.994600 
